<svg width="22" height="22" viewBox="0 0 22 22" fill="none" xmlns="http://www.w3.org/2000/svg">
<path fill-rule="evenodd" clip-rule="evenodd" d="M18.4648 3.53517C17.6451 2.71539 16.5342 2.25331 15.3748 2.24984H6.62516C5.46582 2.25331 4.35495 2.71539 3.53517 3.53517C2.71539 4.35495 2.25331 5.46582 2.24984 6.62516V15.3748C2.25331 16.5342 2.71539 17.6451 3.53517 18.4648C4.35495 19.2846 5.46582 19.7467 6.62516 19.7502H15.3748C16.5342 19.7467 17.6451 19.2846 18.4648 18.4648C19.2846 17.6451 19.7467 16.5342 19.7502 15.3748V6.62516C19.7467 5.46582 19.2846 4.35495 18.4648 3.53517ZM6.62516 0.5H15.3748C18.7437 0.5 21.5 3.25625 21.5 6.62516V15.3748C21.5 18.7437 18.7437 21.5 15.3748 21.5H6.62516C3.25625 21.5 0.5 18.7437 0.5 15.3748V6.62516C0.5 3.25625 3.25625 0.5 6.62516 0.5ZM15.9582 6.40396C16.174 6.54818 16.4278 6.62515 16.6873 6.62515C16.8598 6.62552 17.0306 6.59183 17.1901 6.526C17.3495 6.46017 17.4943 6.36351 17.6163 6.24156C17.7382 6.11961 17.8349 5.97477 17.9007 5.81536C17.9665 5.65596 18.0002 5.48512 17.9998 5.31265C17.9998 5.05306 17.9229 4.79931 17.7786 4.58347C17.6344 4.36763 17.4294 4.1994 17.1896 4.10006C16.9498 4.00072 16.6859 3.97473 16.4313 4.02537C16.1767 4.07602 15.9428 4.20102 15.7593 4.38458C15.5757 4.56813 15.4507 4.802 15.4001 5.0566C15.3494 5.3112 15.3754 5.5751 15.4748 5.81492C15.5741 6.05475 15.7423 6.25974 15.9582 6.40396ZM12.9446 8.08972C12.369 7.70512 11.6923 7.49984 11 7.49984C10.072 7.50083 9.18231 7.86992 8.52611 8.52611C7.86992 9.1823 7.50084 10.072 7.49985 11C7.49985 11.6923 7.70513 12.369 8.08973 12.9446C8.47433 13.5202 9.02098 13.9688 9.66055 14.2337C10.3001 14.4986 11.0039 14.568 11.6828 14.4329C12.3618 14.2978 12.9855 13.9645 13.475 13.475C13.9645 12.9855 14.2978 12.3618 14.4329 11.6828C14.568 11.0039 14.4986 10.3001 14.2337 9.66055C13.9688 9.02098 13.5202 8.47433 12.9446 8.08972ZM8.08326 6.63478C8.94662 6.0579 9.96165 5.75 11 5.75C12.3924 5.75 13.7277 6.30312 14.7123 7.28769C15.6969 8.27225 16.25 9.60761 16.25 11C16.25 12.0383 15.9421 13.0534 15.3652 13.9167C14.7883 14.7801 13.9684 15.453 13.0091 15.8504C12.0498 16.2477 10.9942 16.3517 9.97578 16.1491C8.95738 15.9465 8.02192 15.4465 7.28769 14.7123C6.55347 13.9781 6.05345 13.0426 5.85088 12.0242C5.64831 11.0058 5.75227 9.95022 6.14963 8.99091C6.54699 8.0316 7.2199 7.21166 8.08326 6.63478Z" fill="black"/>
</svg>
